# xmcd
#
# Track frame offsets:
#	150
#	21958
#	52601
#	88175
#	132141
#	155489
#	178597
#	203694
#	243434
#	273224
#	294414
#
# Disc length: 4217
#
# Revision: 1
# Processed by: cddbd v1.5.1PL0 Copyright (c) Steve Scherf et al.
# Submitted via: ExactAudioCopy v0.95a4
# Normalized: r0:TRMNUM
#
DISCID=8d10770b
DTITLE=T-Bone Walker - Montruex Jazz Festival, 17 June 1972
DYEAR=1972
DGENRE=Blues
TTITLE0=Everday I Have The Blues
TTITLE1=I Woke Up This Morning (In An Awful Mood)
TTITLE2=Big Boy
TTITLE3=I Know My Baby
TTITLE4=Shake It Baby
TTITLE5=Stormy Monday Blues
TTITLE6=So Long
TTITLE7=One For The Lonely
TTITLE8=Goin' Back To Church
TTITLE9=Let's Have a Natural Ball
TTITLE10=Why Have I Been Treated So Bad
EXTD=
EXTT0=
EXTT1=
EXTT2=
EXTT3=
EXTT4=
EXTT5=
EXTT6=
EXTT7=
EXTT8=
EXTT9=
EXTT10=
PLAYORDER=
